<svg xmlns="http://www.w3.org/2000/svg" viewBox="0 0 300 300"><path fill="#85d8ce" d="M251.57 256.95c-26.39-64.34-71.19-120.39-127.85-160.65 7.34-14.93 15-29.7 22.98-44.29.69-1.26.41-2.47-.32-3.31h.1c3.86.11 3.86-5.89 0-6-7.03-.2-14.05-.12-21.08.27-.11 0-.21.03-.32.05-27.61-.44-55.12 3.13-81.71 10.6-2.27.64-2.8 3.35-1.32 5.01 21.6 24.44 40.7 50.92 57.13 79.09 1.04 1.78 4.24 2.12 5.18 0 5.35-12.07 10.91-24.04 16.67-35.91 38.95 27.8 72.39 63.26 97.72 103.98 10.45 16.8 19.52 34.46 27.03 52.77 1.45 3.52 7.25 1.98 5.79-1.6zM118.75 92.83s-.1-.07-.15-.1c-.25.6-.61 1.15-1.03 1.58-.1.54-.26 1.07-.53 1.55-.17.31-.37.59-.54.89-.26.47-.59.87-.98 1.2l.54.36a1144.96 1144.96 0 00-14.65 31.38 507.053 507.053 0 00-51.84-71.56c25.28-6.64 51.27-9.7 77.43-9.11.44 0 .82-.07 1.16-.2 4.53-.2 9.06-.28 13.6-.23-.09.12-.18.23-.25.37-7.91 14.45-15.5 29.08-22.77 43.85z"></path><path fill="none" stroke="#85d8ce" stroke-linecap="round" stroke-linejoin="round" stroke-width="3" d="M140.3 51.74s.22 1.14.2 1.14c-.09.02-5.3 2.3-5.41 2.32-.17.03 1.72 9.03 1.6 9.06-.24.04-7.74-12.18-7.89-12.16-.26.05 4.49 24.16 4.27 24.2-.32.06-9.71-21.24-10.04-21.18-.35.06 5.19 27.71 4.9 27.77-.43.08-9.85-24.09-10.31-24.01-.51.09 7.1 36.83 6.51 36.94-.68.12-12.18-36.5-12.83-36.38s7.97 41.49 7.34 41.6c-.83.15-12.58-43.39-13.36-43.25-.59.1 9.64 50.64 8.95 50.76-.8.14-14.2-48.44-14.88-48.32-.93.16 11.44 60.18 10.64 60.32-.71.12-16.05-60.37-16.99-60.2-.82.14 13.61 69.25 12.25 69.49-1.01.18-17.85-72.09-18.61-71.95-1.08.19 14.76 75.48 13.35 75.73S81.65 56.93 80.87 57.07c-.71.12 11.53 59.41 10.51 59.59-.82.14-15.09-59.77-16.16-59.58-.6.11 10.8 56.76 10.03 56.89-.93.16-14.12-52.82-15.01-52.66-.63.11 8.59 44.99 7.95 45.1-.89.16-13.26-43.12-13.96-42.99-.49.09 4.6 23.56 4.17 23.64-.5.09-9.46-23.52-9.92-23.44-.31.05 3.35 16.96 3 17.02s-8.92-19.85-9.26-19.79c-.14.03 1.56 8.05 1.42 8.08"></path></svg>