<svg xmlns="http://www.w3.org/2000/svg" version="1.1" xmlns:xlink="http://www.w3.org/1999/xlink" xmlns:svgjs="http://svgjs.dev/svgjs" width="2000" height="485" viewBox="0 0 2000 485"><g transform="matrix(1,0,0,1,0.21333333333336668,-0.6307931318681881)"><svg viewBox="0 0 375 91" data-background-color="#111111" preserveAspectRatio="xMidYMid meet" height="485" width="2000" xmlns="http://www.w3.org/2000/svg" xmlns:xlink="http://www.w3.org/1999/xlink"><g id="tight-bounds" transform="matrix(1,0,0,1,-0.03976000000000113,0.11871500000000879)"><svg viewBox="0 0 375.07953 90.76293000000001" height="90.76293000000001" width="375.07953"><g><svg></svg></g><g><svg viewBox="0 0 375.07953 90.76293000000001" height="90.76293000000001" width="375.07953"><g transform="matrix(1,0,0,1,-10.22024,-79.78435999999999)"><path d="M10.22 167.416v-87.632h375.08v87.632l-20.864 0 0-2.823h18.041v-81.986h-369.434v81.986l24.954 0 0 2.823z" fill="#ffffff" fill-rule="nonzero" stroke="none" stroke-width="1" stroke-linecap="butt" stroke-linejoin="miter" stroke-miterlimit="10" stroke-dasharray="" stroke-dashoffset="0" font-family="none" font-weight="none" font-size="none" text-anchor="none" style="mix-blend-mode: normal" data-fill-palette-color="tertiary"></path><g><path d="M50.448 159.277v0c-1.747 0-2.621 0.658-2.621 1.975v0c0 0.734 0.202 1.237 0.604 1.509 0.401 0.275 1.216 0.549 2.447 0.822 1.228 0.275 2.098 0.63 2.61 1.066 0.513 0.438 0.769 1.158 0.769 2.159v0c0 2.481-1.287 3.722-3.862 3.722v0c-0.85 0-1.916-0.099-3.197-0.297v0l-0.629-0.088 0.14-1.118c1.584 0.21 2.79 0.315 3.616 0.315v0c1.724 0 2.586-0.81 2.586-2.429v0c0-0.652-0.189-1.122-0.566-1.408-0.38-0.284-1.088-0.525-2.124-0.724v0c-1.363-0.291-2.33-0.667-2.901-1.128-0.571-0.459-0.856-1.23-0.856-2.314v0c0-2.167 1.299-3.25 3.896-3.25v0c0.85 0 1.87 0.087 3.058 0.262v0l0.594 0.088-0.122 1.135c-1.619-0.198-2.767-0.297-3.442-0.297zM74.878 169.289v0l0.507-0.052 0.035 1.031c-1.328 0.186-2.464 0.28-3.407 0.279v0c-1.258 0-2.149-0.365-2.674-1.094-0.524-0.727-0.786-1.859-0.786-3.396v0c0-3.064 1.217-4.595 3.652-4.596v0c1.177 0 2.056 0.328 2.638 0.986 0.582 0.659 0.874 1.694 0.874 3.103v0l-0.07 0.996h-5.766c0 0.967 0.175 1.683 0.524 2.149 0.349 0.466 0.958 0.699 1.824 0.699 0.869 0 1.752-0.035 2.649-0.105zM69.863 165.498h4.543c0-1.072-0.172-1.829-0.517-2.272-0.342-0.443-0.902-0.664-1.677-0.664-0.773 0-1.356 0.233-1.748 0.699-0.389 0.466-0.589 1.211-0.601 2.237zM91.652 170.373h-1.311v-8.737h1.311zM91.652 159.662h-1.311v-1.52h1.311zM110.963 162.772h-2.534v7.601h-1.31v-7.601h-1.101v-1.136h1.101v-0.786c0-1.235 0.175-2.077 0.524-2.527 0.349-0.447 0.961-0.671 1.835-0.671v0l1.764 0.123-0.017 1.083c-0.652-0.023-1.192-0.035-1.618-0.035-0.424 0-0.727 0.14-0.909 0.419-0.179 0.28-0.269 0.821-0.269 1.625v0 0.769h2.534zM149.127 170.373h-7.356v-12.092h7.356v1.189h-6.011v4.176h4.962v1.17h-4.962v4.368h6.011zM165.201 170.373h-1.31v-12.546h1.31zM185.823 157.827h1.293v12.546h-1.293v-0.595c-0.897 0.513-1.782 0.769-2.656 0.769v0c-0.466 0-0.874-0.058-1.223-0.174-0.349-0.116-0.676-0.326-0.979-0.629v0c-0.629-0.629-0.944-1.792-0.943-3.488 0-1.694 0.282-2.917 0.846-3.669 0.566-0.75 1.501-1.125 2.806-1.126v0c0.676 0 1.392 0.076 2.149 0.228v0zM181.979 168.8c0.186 0.221 0.384 0.373 0.594 0.454 0.21 0.082 0.48 0.122 0.811 0.123 0.333 0 0.706-0.056 1.118-0.168 0.415-0.11 0.739-0.217 0.971-0.322v0l0.35-0.157v-5.923c-0.746-0.14-1.439-0.21-2.079-0.21v0c-0.885 0-1.503 0.282-1.853 0.846-0.349 0.566-0.524 1.443-0.524 2.631v0c0 1.351 0.204 2.26 0.612 2.726zM203.54 170.373h-1.31v-8.737h1.31zM203.54 159.662h-1.31v-1.52h1.31zM219.95 163.279v7.094h-1.31v-8.737h1.293v0.612c0.944-0.524 1.846-0.786 2.708-0.787v0c1.165 0 1.948 0.315 2.349 0.944 0.403 0.629 0.605 1.747 0.604 3.355v0 4.613h-1.293v-4.578c0-1.211-0.12-2.042-0.36-2.492-0.238-0.447-0.747-0.671-1.527-0.671v0c-0.373 0-0.766 0.055-1.181 0.164-0.412 0.112-0.729 0.22-0.951 0.325v0zM260.595 159.277v0c-1.747 0-2.621 0.658-2.62 1.975v0c0 0.734 0.2 1.237 0.601 1.509 0.403 0.275 1.218 0.549 2.446 0.822 1.23 0.275 2.101 0.63 2.614 1.066 0.513 0.438 0.769 1.158 0.769 2.159v0c0 2.481-1.287 3.722-3.862 3.722v0c-0.85 0-1.916-0.099-3.197-0.297v0l-0.629-0.088 0.139-1.118c1.584 0.21 2.79 0.315 3.617 0.315v0c1.724 0 2.586-0.81 2.586-2.429v0c0-0.652-0.19-1.122-0.57-1.408-0.377-0.284-1.084-0.525-2.121-0.724v0c-1.363-0.291-2.33-0.667-2.9-1.128-0.571-0.459-0.856-1.23-0.856-2.314v0c0-2.167 1.299-3.25 3.896-3.25v0c0.85 0 1.87 0.087 3.058 0.262v0l0.594 0.088-0.122 1.135c-1.619-0.198-2.767-0.297-3.443-0.297zM285.249 164.275v0 4.473c0.035 0.431 0.373 0.687 1.014 0.768v0l-0.053 1.031c-0.92 0-1.613-0.233-2.079-0.699v0c-1.048 0.466-2.097 0.699-3.145 0.699v0c-0.804 0-1.415-0.227-1.835-0.681-0.419-0.454-0.629-1.107-0.629-1.957 0-0.85 0.215-1.477 0.647-1.88 0.431-0.401 1.107-0.648 2.027-0.741v0l2.743-0.262v-0.751c0-0.594-0.128-1.019-0.384-1.276-0.256-0.256-0.606-0.384-1.049-0.384v0c-0.932 0-1.899 0.058-2.9 0.174v0l-0.542 0.053-0.052-0.996c1.281-0.256 2.417-0.384 3.407-0.385 0.99 0 1.71 0.227 2.159 0.682 0.447 0.454 0.671 1.165 0.671 2.132zM279.868 167.839v0c0 1.072 0.443 1.607 1.328 1.608v0c0.792 0 1.573-0.134 2.341-0.402v0l0.402-0.14v-2.883l-2.586 0.244c-0.524 0.047-0.903 0.198-1.136 0.455-0.233 0.256-0.349 0.629-0.349 1.118zM301.73 163.279v7.094h-1.311v-8.737h1.293v0.612c0.874-0.524 1.724-0.786 2.551-0.787v0c1.083 0 1.84 0.297 2.272 0.892v0c0.384-0.233 0.882-0.44 1.492-0.622 0.613-0.179 1.152-0.269 1.618-0.27v0c1.165 0 1.948 0.311 2.348 0.934 0.403 0.624 0.605 1.746 0.605 3.365v0 4.613h-1.311v-4.578c0-1.211-0.116-2.042-0.349-2.492-0.233-0.447-0.728-0.671-1.485-0.671v0c-0.384 0-0.78 0.055-1.189 0.164-0.408 0.112-0.722 0.22-0.943 0.325v0l-0.332 0.158c0.151 0.384 0.227 1.235 0.227 2.551v0 4.543h-1.31v-4.508c0-1.258-0.114-2.112-0.343-2.562-0.226-0.447-0.723-0.671-1.492-0.671v0c-0.373 0-0.755 0.055-1.146 0.164-0.389 0.112-0.688 0.22-0.898 0.325v0zM333.547 169.289v0l0.507-0.052 0.035 1.031c-1.328 0.186-2.464 0.28-3.407 0.279v0c-1.258 0-2.149-0.365-2.673-1.094-0.524-0.727-0.786-1.859-0.787-3.396v0c0-3.064 1.217-4.595 3.652-4.596v0c1.177 0 2.056 0.328 2.639 0.986 0.582 0.659 0.874 1.694 0.873 3.103v0l-0.07 0.996h-5.766c0 0.967 0.175 1.683 0.524 2.149 0.349 0.466 0.959 0.699 1.828 0.699 0.867 0 1.748-0.035 2.645-0.105zM328.533 165.498h4.543c0-1.072-0.171-1.829-0.514-2.272-0.345-0.443-0.904-0.664-1.677-0.664-0.776 0-1.358 0.233-1.748 0.699-0.391 0.466-0.593 1.211-0.604 2.237zM350.325 163.156v7.217h-1.311v-12.546h1.311v4.298c0.932-0.443 1.829-0.664 2.691-0.664v0c1.165 0 1.948 0.315 2.348 0.944 0.403 0.629 0.605 1.747 0.604 3.355v0 4.613h-1.31v-4.578c0-1.211-0.12-2.042-0.36-2.492-0.238-0.447-0.741-0.671-1.51-0.671v0c-0.734 0-1.444 0.134-2.131 0.402v0z" fill="#ffffff" fill-rule="nonzero" stroke="none" stroke-width="1" stroke-linecap="butt" stroke-linejoin="miter" stroke-miterlimit="10" stroke-dasharray="" stroke-dashoffset="0" font-family="none" font-weight="none" font-size="none" text-anchor="none" style="mix-blend-mode: normal" data-fill-palette-color="secondary"></path></g></g><g transform="matrix(1,0,0,1,29.33176499999999,29.732370344140687)"><svg viewBox="0 0 316.416 31.298189311718637" height="31.298189311718637" width="316.416"><g><svg viewBox="0 0 316.416 31.298189311718637" height="31.298189311718637" width="316.416"><g><svg viewBox="0 0 316.416 31.298189311718637" height="31.298189311718637" width="316.416"><g><svg viewBox="0 0 316.416 31.298189311718637" height="31.298189311718637" width="316.416"><g id="textblocktransform"><svg viewBox="0 0 316.416 31.298189311718637" height="31.298189311718637" width="316.416" id="textblock"><g><svg viewBox="0 0 316.416 31.298189311718637" height="31.298189311718637" width="316.416"><g transform="matrix(1,0,0,1,0,0)"><svg width="316.416" viewBox="2.05 -35.5 363.9 36" height="31.298189311718637" data-palette-color="#ffffff"><path d="M2.05 0L2.05-35 9.9-35 13.4-9.95 13.5-9.95 17-35 24.85-35 24.85 0 19.65 0 19.65-26.5 19.55-26.5 15.55 0 10.95 0 6.95-26.5 6.85-26.5 6.85 0 2.05 0ZM28.95 0L28.95-35 43.95-35 43.95-30 34.45-30 34.45-20.75 42-20.75 42-15.75 34.45-15.75 34.45-5 43.95-5 43.95 0 28.95 0ZM47.09 0L47.09-35 55.25-35Q59.5-35 61.45-33.02 63.4-31.05 63.4-26.95L63.4-26.95 63.4-24.8Q63.4-19.35 59.8-17.9L59.8-17.9 59.8-17.8Q61.8-17.2 62.62-15.35 63.45-13.5 63.45-10.4L63.45-10.4 63.45-4.25Q63.45-2.75 63.55-1.83 63.65-0.9 64.05 0L64.05 0 58.45 0Q58.15-0.85 58.05-1.6 57.95-2.35 57.95-4.3L57.95-4.3 57.95-10.7Q57.95-13.1 57.17-14.05 56.4-15 54.5-15L54.5-15 52.59-15 52.59 0 47.09 0ZM52.59-20L54.59-20Q56.25-20 57.07-20.85 57.9-21.7 57.9-23.7L57.9-23.7 57.9-26.4Q57.9-28.3 57.22-29.15 56.55-30 55.09-30L55.09-30 52.59-30 52.59-20ZM67.24 0L67.24-35 74.14-35 79.49-14.05 79.59-14.05 79.59-35 84.49-35 84.49 0 78.84 0 72.24-25.55 72.14-25.55 72.14 0 67.24 0ZM103.74 0.5Q99.74 0.5 97.69-1.78 95.64-4.05 95.64-8.3L95.64-8.3 95.64-10.3 100.84-10.3 100.84-7.9Q100.84-4.5 103.69-4.5L103.69-4.5Q105.09-4.5 105.81-5.33 106.54-6.15 106.54-8L106.54-8Q106.54-10.2 105.54-11.88 104.54-13.55 101.84-15.9L101.84-15.9Q98.44-18.9 97.09-21.33 95.74-23.75 95.74-26.8L95.74-26.8Q95.74-30.95 97.84-33.23 99.94-35.5 103.94-35.5L103.94-35.5Q107.89-35.5 109.91-33.23 111.94-30.95 111.94-26.7L111.94-26.7 111.94-25.25 106.74-25.25 106.74-27.05Q106.74-28.85 106.04-29.68 105.34-30.5 103.99-30.5L103.99-30.5Q101.24-30.5 101.24-27.15L101.24-27.15Q101.24-25.25 102.26-23.6 103.29-21.95 105.99-19.6L105.99-19.6Q109.44-16.6 110.74-14.15 112.04-11.7 112.04-8.4L112.04-8.4Q112.04-4.1 109.91-1.8 107.79 0.5 103.74 0.5L103.74 0.5ZM119.49 0L119.49-30 113.74-30 113.74-35 130.74-35 130.74-30 124.99-30 124.99 0 119.49 0ZM129.63 0L135.33-35 142.78-35 148.48 0 142.98 0 141.98-6.95 141.98-6.85 135.73-6.85 134.73 0 129.63 0ZM136.38-11.6L141.33-11.6 138.88-28.9 138.78-28.9 136.38-11.6ZM158.78 0.5Q154.83 0.5 152.76-1.75 150.68-4 150.68-8.1L150.68-8.1 150.68-26.9Q150.68-31 152.76-33.25 154.83-35.5 158.78-35.5L158.78-35.5Q162.73-35.5 164.81-33.25 166.88-31 166.88-26.9L166.88-26.9 166.88-23.2 161.68-23.2 161.68-27.25Q161.68-30.5 158.93-30.5L158.93-30.5Q156.18-30.5 156.18-27.25L156.18-27.25 156.18-7.7Q156.18-4.5 158.93-4.5L158.93-4.5Q161.68-4.5 161.68-7.7L161.68-7.7 161.68-13.05 166.88-13.05 166.88-8.1Q166.88-4 164.81-1.75 162.73 0.5 158.78 0.5L158.78 0.5ZM170.18 0L170.18-35 175.68-35 175.68-20.25 182.68-35 188.18-35 181.63-22.15 188.28 0 182.53 0 177.88-15.6 175.68-11.15 175.68 0 170.18 0ZM198.87 0L198.87-35 207.27-35Q211.37-35 213.42-32.8 215.47-30.6 215.47-26.35L215.47-26.35 215.47-8.65Q215.47-4.4 213.42-2.2 211.37 0 207.27 0L207.27 0 198.87 0ZM204.37-5L207.17-5Q208.52-5 209.25-5.8 209.97-6.6 209.97-8.4L209.97-8.4 209.97-26.6Q209.97-28.4 209.25-29.2 208.52-30 207.17-30L207.17-30 204.37-30 204.37-5ZM219.17 0L219.17-35 234.17-35 234.17-30 224.67-30 224.67-20.75 232.22-20.75 232.22-15.75 224.67-15.75 224.67-5 234.17-5 234.17 0 219.17 0ZM241.17 0L235.87-35 241.42-35 245.02-7.85 245.12-7.85 248.72-35 253.77-35 248.47 0 241.17 0ZM256.42 0L256.42-35 271.42-35 271.42-30 261.92-30 261.92-20.75 269.47-20.75 269.47-15.75 261.92-15.75 261.92-5 271.42-5 271.42 0 256.42 0ZM274.56 0L274.56-35 280.06-35 280.06-5 289.11-5 289.11 0 274.56 0ZM299.51 0.5Q295.46 0.5 293.31-1.8 291.16-4.1 291.16-8.3L291.16-8.3 291.16-26.7Q291.16-30.9 293.31-33.2 295.46-35.5 299.51-35.5L299.51-35.5Q303.56-35.5 305.71-33.2 307.86-30.9 307.86-26.7L307.86-26.7 307.86-8.3Q307.86-4.1 305.71-1.8 303.56 0.5 299.51 0.5L299.51 0.5ZM299.51-4.5Q302.36-4.5 302.36-7.95L302.36-7.95 302.36-27.05Q302.36-30.5 299.51-30.5L299.51-30.5Q296.66-30.5 296.66-27.05L296.66-27.05 296.66-7.95Q296.66-4.5 299.51-4.5L299.51-4.5ZM311.56 0L311.56-35 319.66-35Q323.76-35 325.81-32.8 327.86-30.6 327.86-26.35L327.86-26.35 327.86-22.9Q327.86-18.65 325.81-16.45 323.76-14.25 319.66-14.25L319.66-14.25 317.06-14.25 317.06 0 311.56 0ZM317.06-19.25L319.66-19.25Q321.01-19.25 321.68-20 322.36-20.75 322.36-22.55L322.36-22.55 322.36-26.7Q322.36-28.5 321.68-29.25 321.01-30 319.66-30L319.66-30 317.06-30 317.06-19.25ZM330.86 0L330.86-35 345.86-35 345.86-30 336.36-30 336.36-20.75 343.91-20.75 343.91-15.75 336.36-15.75 336.36-5 345.86-5 345.86 0 330.86 0ZM349 0L349-35 357.15-35Q361.4-35 363.35-33.02 365.3-31.05 365.3-26.95L365.3-26.95 365.3-24.8Q365.3-19.35 361.7-17.9L361.7-17.9 361.7-17.8Q363.7-17.2 364.53-15.35 365.35-13.5 365.35-10.4L365.35-10.4 365.35-4.25Q365.35-2.75 365.45-1.83 365.55-0.9 365.95 0L365.95 0 360.35 0Q360.05-0.85 359.95-1.6 359.85-2.35 359.85-4.3L359.85-4.3 359.85-10.7Q359.85-13.1 359.08-14.05 358.3-15 356.4-15L356.4-15 354.5-15 354.5 0 349 0ZM354.5-20L356.5-20Q358.15-20 358.98-20.85 359.8-21.7 359.8-23.7L359.8-23.7 359.8-26.4Q359.8-28.3 359.13-29.15 358.45-30 357-30L357-30 354.5-30 354.5-20Z" opacity="1" transform="matrix(1,0,0,1,0,0)" fill="#ffffff" class="undefined-text-0" data-fill-palette-color="primary" id="text-0"></path></svg></g></svg></g></svg></g></svg></g><g></g></svg></g></svg></g></svg></g></svg></g><defs></defs></svg><rect width="375.07953" height="90.76293000000001" fill="none" stroke="none" visibility="hidden"></rect></g></svg></g></svg>