<svg xmlns="http://www.w3.org/2000/svg" version="1.1" xmlns:xlink="http://www.w3.org/1999/xlink" xmlns:svgjs="http://svgjs.dev/svgjs" width="128" height="128" viewBox="0 0 128 128"><g transform="matrix(0.8046875,0,0,0.8046875,12.333870967741937,12.333870967741937)"><svg viewBox="0 0 155 155" data-background-color="#111111" preserveAspectRatio="xMidYMid meet" height="128" width="128" xmlns="http://www.w3.org/2000/svg" xmlns:xlink="http://www.w3.org/1999/xlink"><g id="tight-bounds" transform="matrix(1,0,0,1,0.25,0.25)"><svg viewBox="0 0 154.5 154.5" height="154.5" width="154.5"><g><svg></svg></g><g><svg viewBox="0 0 154.5 154.5" height="154.5" width="154.5"><g transform="matrix(1,0,0,1,39.0576,55.109478260869565)"><svg viewBox="0 0 76.3848 44.28104347826087" height="44.28104347826087" width="76.3848"><g><svg viewBox="0 0 76.3848 44.28104347826087" height="44.28104347826087" width="76.3848"><g><svg viewBox="0 0 76.3848 44.28104347826087" height="44.28104347826087" width="76.3848"><g id="textblocktransform"><svg viewBox="0 0 76.3848 44.28104347826087" height="44.28104347826087" width="76.3848" id="textblock"><g><svg viewBox="0 0 76.3848 44.28104347826087" height="44.28104347826087" width="76.3848"><g transform="matrix(1,0,0,1,0,0)"><svg width="76.3848" viewBox="2.05 -35.5 62.10000000000001 36" height="44.28104347826087" data-palette-color="#ffffff"><path d="M2.05 0L2.05-35 9.9-35 13.4-9.95 13.5-9.95 17-35 24.85-35 24.85 0 19.65 0 19.65-26.5 19.55-26.5 15.55 0 10.95 0 6.95-26.5 6.85-26.5 6.85 0 2.05 0ZM36.1 0.5Q32.1 0.5 30.05-1.78 28-4.05 28-8.3L28-8.3 28-10.3 33.2-10.3 33.2-7.9Q33.2-4.5 36.05-4.5L36.05-4.5Q37.45-4.5 38.17-5.33 38.9-6.15 38.9-8L38.9-8Q38.9-10.2 37.9-11.88 36.9-13.55 34.2-15.9L34.2-15.9Q30.8-18.9 29.45-21.33 28.1-23.75 28.1-26.8L28.1-26.8Q28.1-30.95 30.2-33.23 32.3-35.5 36.3-35.5L36.3-35.5Q40.25-35.5 42.27-33.23 44.3-30.95 44.3-26.7L44.3-26.7 44.3-25.25 39.1-25.25 39.1-27.05Q39.1-28.85 38.4-29.68 37.7-30.5 36.35-30.5L36.35-30.5Q33.6-30.5 33.6-27.15L33.6-27.15Q33.6-25.25 34.62-23.6 35.65-21.95 38.35-19.6L38.35-19.6Q41.8-16.6 43.1-14.15 44.4-11.7 44.4-8.4L44.4-8.4Q44.4-4.1 42.27-1.8 40.15 0.5 36.1 0.5L36.1 0.5ZM47.55 0L47.55-35 55.95-35Q60.05-35 62.1-32.8 64.15-30.6 64.15-26.35L64.15-26.35 64.15-8.65Q64.15-4.4 62.1-2.2 60.05 0 55.95 0L55.95 0 47.55 0ZM53.05-5L55.85-5Q57.2-5 57.92-5.8 58.65-6.6 58.65-8.4L58.65-8.4 58.65-26.6Q58.65-28.4 57.92-29.2 57.2-30 55.85-30L55.85-30 53.05-30 53.05-5Z" opacity="1" transform="matrix(1,0,0,1,0,0)" fill="#ffffff" class="wordmark-text-0" data-fill-palette-color="primary" id="text-0"></path></svg></g></svg></g></svg></g></svg></g><g></g></svg></g></svg></g><g><path d="M0 154.5v-154.5h154.5v154.5zM150.507 150.507v-146.514h-146.514v146.514z" fill="#ffffff" fill-rule="nonzero" stroke="none" stroke-width="1" stroke-linecap="butt" stroke-linejoin="miter" stroke-miterlimit="10" stroke-dasharray="" stroke-dashoffset="0" font-family="none" font-weight="none" font-size="none" text-anchor="none" style="mix-blend-mode: normal" data-fill-palette-color="tertiary"></path></g></svg></g><defs></defs></svg><rect width="154.5" height="154.5" fill="none" stroke="none" visibility="hidden"></rect></g></svg></g></svg>